<svg width="24" height="24" viewBox="0 0 24 24" fill="none" xmlns="http://www.w3.org/2000/svg">
<g clip-path="url(#clip0_102_2)">
<path d="M12 0C5.37322 0 0 5.5125 0 12.3054C0 17.7429 3.43929 22.35 8.20714 23.9786C8.274 23.9931 8.34229 24.0003 8.41074 24C8.85537 24 9.0268 23.6732 9.0268 23.3893C9.0268 23.0946 9.01606 22.3232 9.01069 21.2946C8.61377 21.3877 8.20771 21.4362 7.8 21.4393C5.49107 21.4393 4.96607 19.6446 4.96607 19.6446C4.41964 18.225 3.63214 17.8446 3.63214 17.8446C2.5875 17.1107 3.62678 17.0893 3.70714 17.0893H3.7125C4.91786 17.1964 5.55 18.3643 5.55 18.3643C6.15 19.4143 6.95354 19.7089 7.67143 19.7089C8.14611 19.6994 8.61343 19.5899 9.04286 19.3875C9.15 18.5946 9.46069 18.0535 9.80354 17.7429C7.14109 17.4321 4.33929 16.3768 4.33929 11.6625C4.33929 10.3178 4.80535 9.21966 5.57143 8.36251C5.44822 8.05177 5.03571 6.79823 5.68929 5.10535C5.77697 5.08438 5.86709 5.07537 5.95714 5.07857C6.39109 5.07857 7.37143 5.24464 8.98932 6.36966C10.9551 5.81966 13.0342 5.81966 15 6.36966C16.6179 5.24464 17.5982 5.07857 18.0322 5.07857C18.1222 5.07537 18.2123 5.08438 18.3 5.10535C18.9536 6.79823 18.5411 8.05177 18.4178 8.36251C19.1839 9.22497 19.65 10.3232 19.65 11.6625C19.65 16.3875 16.8429 17.4268 14.1697 17.7321C14.5982 18.1125 14.9839 18.8625 14.9839 20.0089C14.9839 21.6535 14.9678 22.9821 14.9678 23.3839C14.9678 23.6732 15.1339 24 15.5786 24C15.6506 24.0003 15.7223 23.9931 15.7929 23.9786C20.5661 22.35 24 17.7375 24 12.3054C24 5.5125 18.6268 0 12 0Z" fill="black"/>
</g>
<defs>
<clipPath id="clip0_102_2">
<rect width="24" height="24" fill="white"/>
</clipPath>
</defs>
</svg>