<svg width="25" height="25" viewBox="0 0 25 25" fill="none" xmlns="http://www.w3.org/2000/svg">
<g clip-path="url(#clip0_209_2)">
<path d="M21.0229 3.4406C18.8276 0.253101 14.5309 -0.668649 11.2219 1.3391L5.62387 4.89785C4.09237 5.8586 3.04162 7.4216 2.73337 9.19835C2.45962 10.6751 2.69812 12.2021 3.40162 13.5304C2.92087 14.2534 2.59687 15.0694 2.45212 15.9289C2.13187 17.7334 2.54962 19.5926 3.61237 21.0889C5.81137 24.2689 10.0969 25.1944 13.4134 23.2099L19.0151 19.6474C20.5384 18.6866 21.5854 17.1236 21.8944 15.3469C22.1636 13.8739 21.9259 12.3506 21.2224 11.0306C22.7104 8.69435 22.6324 5.6906 21.0229 3.4406ZM10.6631 21.3979C8.86237 21.8666 6.95962 21.1594 5.90137 19.6286C5.25262 18.7301 5.01487 17.6209 5.20237 16.5191L5.31187 15.9881L5.41312 15.6596L5.71387 15.8591C6.37387 16.3594 7.11262 16.7186 7.90162 16.9609L8.10487 17.0314L8.08162 17.2309C8.06212 17.5084 8.14387 17.8204 8.30437 18.0589C8.63287 18.5314 9.20287 18.7579 9.75337 18.6094C9.87412 18.5704 9.99187 18.5314 10.0931 18.4684L15.6716 14.9096C15.9529 14.7296 16.1329 14.4604 16.2026 14.1401C16.2649 13.8079 16.1831 13.4681 16.0031 13.1989C15.6709 12.7376 15.1046 12.5306 14.5541 12.6679C14.4334 12.7106 14.3044 12.7579 14.2024 12.8201L12.0926 14.1596C10.0969 15.3469 7.51837 14.7889 6.19387 12.8786C5.54962 11.9801 5.29537 10.8589 5.49037 9.7691C5.68537 8.6906 6.33037 7.7456 7.26412 7.16735L12.8306 3.6086C13.1824 3.3896 13.5611 3.22985 13.9714 3.10835C15.7721 2.6396 17.6704 3.34685 18.7331 4.8701C19.4831 5.9246 19.6939 7.27235 19.3031 8.50685L19.2019 8.8391L18.9131 8.6396C18.2449 8.15135 17.5031 7.7801 16.7141 7.53785L16.5146 7.47935L16.5341 7.27985C16.5536 6.9866 16.4719 6.67835 16.3114 6.43985C15.9829 5.96735 15.4129 5.76785 14.8624 5.90885C14.7416 5.94785 14.6239 5.98685 14.5226 6.04985L8.93287 9.63935C8.65162 9.82685 8.47162 10.0886 8.41312 10.4164C8.35462 10.7366 8.43262 11.0884 8.61262 11.3464C8.93287 11.8189 9.51487 12.0184 10.0541 11.8774C10.1831 11.8384 10.3039 11.7994 10.4021 11.7364L12.5351 10.3766C12.8831 10.1464 13.2731 9.97835 13.6721 9.86885C15.4849 9.39635 17.3756 10.1074 18.4339 11.6381C19.0826 12.5366 19.3324 13.6459 19.1524 14.7356C18.9649 15.8141 18.3281 16.7591 17.4026 17.3374L11.8241 20.8879C11.4611 21.1069 11.0704 21.2786 10.6639 21.3956L10.6631 21.3979Z" fill="black"/>
</g>
<defs>
<clipPath id="clip0_209_2">
<rect width="24" height="24" fill="white" transform="translate(0.34314 0.268845)"/>
</clipPath>
</defs>
</svg>
